# xmcd
#
# Track frame offsets: 
#        150
#        32944
#        52804
#        81721
#        92939
#        129921
#        140975
#        160653
#        178636
#
# Disc length: 2889 seconds
#
# Revision: 0
# Processed by: cddbd v1.5.2PL0 Copyright (c) Steve Scherf et al.
# Submitted via: ExactAudioCopyFreeDBPlugin 1.0
#
DISCID=7b0b4709
DTITLE=Relaxing Harmony - Orient Express - Wschodnie Inspiracje
DYEAR=2007
DGENRE=New Age
TTITLE0=Lila Sekri
TTITLE1=Hasui
TTITLE2=Mami
TTITLE3=Taher
TTITLE4=Bechenet
TTITLE5=Kaba
TTITLE6=Kader
TTITLE7=Khaled
TTITLE8=Bin On Bienne
EXTD=YEAR: 2004
EXTT0=
EXTT1=
EXTT2=
EXTT3=
EXTT4=
EXTT5=
EXTT6=
EXTT7=
EXTT8=
PLAYORDER=
